<svg width="36" height="36" viewBox="0 0 36 36" fill="none" xmlns="http://www.w3.org/2000/svg">
<path d="M26.7045 18.2055C26.6001 18.0987 26.4755 18.0139 26.338 17.9558C26.2004 17.8977 26.0527 17.8676 25.9034 17.8672C25.7541 17.8668 25.6062 17.8961 25.4684 17.9534C25.3305 18.0108 25.2055 18.0949 25.1005 18.2011C24.9955 18.3072 24.9127 18.4332 24.8569 18.5717C24.8011 18.7102 24.7734 18.8584 24.7755 19.0077C24.7775 19.1569 24.8093 19.3043 24.8688 19.4412C24.9284 19.5781 25.0147 19.7018 25.1225 19.805C26.077 20.7442 26.8342 21.8646 27.3498 23.1004C27.8654 24.3362 28.129 25.6626 28.1251 27.0016C28.1251 28.3776 24.1809 30.3766 18.0001 30.3766C11.8192 30.3766 7.87505 28.3766 7.87505 26.9994C7.87127 25.6695 8.1313 24.3521 8.6401 23.1234C9.14889 21.8947 9.89635 20.7792 10.8392 19.8413C10.9458 19.7374 11.0308 19.6132 11.0891 19.4762C11.1474 19.3391 11.1779 19.1919 11.1788 19.0429C11.1798 18.894 11.1511 18.7464 11.0946 18.6086C11.038 18.4708 10.9547 18.3456 10.8493 18.2403C10.744 18.135 10.6189 18.0516 10.4811 17.9951C10.3433 17.9385 10.1957 17.9099 10.0467 17.9108C9.89779 17.9118 9.75053 17.9423 9.61347 18.0006C9.47642 18.0589 9.35231 18.1438 9.24834 18.2505C8.09569 19.3971 7.18194 20.7609 6.56 22.2631C5.93806 23.7652 5.62027 25.3758 5.62505 27.0016C5.62505 30.6552 12.0004 32.6266 18.0001 32.6266C23.9997 32.6266 30.3751 30.6552 30.3751 27.0016C30.3801 25.3649 30.0579 23.7436 29.4276 22.2331C28.7973 20.7225 27.8715 19.3532 26.7045 18.2055Z" fill="white"/>
<path d="M18 19.125C19.5575 19.125 21.0801 18.6631 22.3751 17.7978C23.6702 16.9325 24.6795 15.7026 25.2756 14.2636C25.8716 12.8247 26.0275 11.2413 25.7237 9.71367C25.4198 8.18607 24.6698 6.78288 23.5685 5.68154C22.4671 4.5802 21.0639 3.83018 19.5363 3.52632C18.0087 3.22246 16.4253 3.37841 14.9864 3.97445C13.5474 4.57049 12.3175 5.57985 11.4522 6.87489C10.5869 8.16992 10.125 9.69248 10.125 11.25C10.1274 13.3378 10.9579 15.3395 12.4342 16.8158C13.9105 18.2921 15.9122 19.1226 18 19.125ZM18 5.625C19.1125 5.625 20.2001 5.9549 21.1251 6.57299C22.0501 7.19107 22.7711 8.06957 23.1968 9.09741C23.6226 10.1252 23.734 11.2562 23.5169 12.3474C23.2999 13.4385 22.7641 14.4408 21.9775 15.2275C21.1908 16.0141 20.1885 16.5499 19.0974 16.7669C18.0062 16.984 16.8752 16.8726 15.8474 16.4468C14.8196 16.0211 13.9411 15.3001 13.323 14.3751C12.7049 13.4501 12.375 12.3625 12.375 11.25C12.3768 9.7587 12.97 8.32898 14.0245 7.27447C15.079 6.21996 16.5087 5.62676 18 5.625Z" fill="white"/>
</svg>
