<svg width="27" height="28" viewBox="0 0 27 28" fill="none" xmlns="http://www.w3.org/2000/svg">
<path d="M25.7999 12.8131L14.3124 24.3006C12.9051 25.7079 10.9964 26.4985 9.00612 26.4985C7.01589 26.4985 5.10718 25.7079 3.69987 24.3006C2.29257 22.8933 1.50195 20.9845 1.50195 18.9943C1.50195 17.0041 2.29257 15.0954 3.69987 13.6881L14.4124 2.97556C15.3506 2.0357 16.6237 1.50703 17.9517 1.50586C19.2797 1.50469 20.5538 2.03111 21.4936 2.96931C22.4335 3.90751 22.9622 5.18065 22.9633 6.50864C22.9645 7.83663 22.4381 9.1107 21.4999 10.0506L10.7624 20.7631C10.2933 21.2322 9.65703 21.4957 8.99362 21.4957C8.33021 21.4957 7.69398 21.2322 7.22487 20.7631C6.75577 20.294 6.49223 19.6577 6.49223 18.9943C6.49223 18.3309 6.75577 17.6947 7.22487 17.2256L17.8374 6.62556" stroke="white" stroke-width="1.875" stroke-linecap="round" stroke-linejoin="round"/>
</svg>
