<svg width="24" height="24" viewBox="0 0 24 24" fill="none" xmlns="http://www.w3.org/2000/svg">
<rect width="24" height="24" rx="4" fill="#0585A2"/>
<path d="M11.6365 14.5547C11.7082 14.6256 11.7935 14.6814 11.8873 14.7187C11.981 14.7561 12.0813 14.7741 12.1821 14.7719C12.283 14.7697 12.3824 14.7472 12.4744 14.7058C12.5664 14.6644 12.6491 14.6049 12.7177 14.5309L14.7957 12.4697C14.937 12.3296 15.0168 12.1391 15.0176 11.9401C15.0185 11.7411 14.9402 11.55 14.8001 11.4087C14.66 11.2674 14.4695 11.1876 14.2705 11.1868C14.0715 11.1859 13.8804 11.2642 13.7391 11.4043L12.9227 12.2143V6.75C12.9227 6.55109 12.8437 6.36032 12.703 6.21967C12.5624 6.07902 12.3716 6 12.1727 6C11.9738 6 11.783 6.07902 11.6424 6.21967C11.5017 6.36032 11.4227 6.55109 11.4227 6.75V12.23L10.5912 11.4052C10.4494 11.2683 10.2594 11.1927 10.0623 11.1948C9.86521 11.197 9.67686 11.2766 9.53801 11.4165C9.39916 11.5563 9.32095 11.7453 9.32032 11.9424C9.31968 12.1395 9.39666 12.3289 9.5346 12.4697L11.6365 14.5547Z" fill="white"/>
<path d="M17.58 13.1289C17.3811 13.1289 17.1903 13.2079 17.0497 13.3486C16.909 13.4892 16.83 13.68 16.83 13.8789V16.1894H7.5V13.8789C7.5 13.68 7.42098 13.4892 7.28033 13.3486C7.13968 13.2079 6.94891 13.1289 6.75 13.1289C6.55109 13.1289 6.36032 13.2079 6.21967 13.3486C6.07902 13.4892 6 13.68 6 13.8789V16.9394C6 17.1383 6.07902 17.3291 6.21967 17.4697C6.36032 17.6104 6.55109 17.6894 6.75 17.6894H17.58C17.7789 17.6894 17.9697 17.6104 18.1103 17.4697C18.251 17.3291 18.33 17.1383 18.33 16.9394V13.8789C18.33 13.68 18.251 13.4892 18.1103 13.3486C17.9697 13.2079 17.7789 13.1289 17.58 13.1289Z" fill="white"/>
</svg>
