<svg width="34" height="28" viewBox="0 0 34 28" fill="none" xmlns="http://www.w3.org/2000/svg">
<path fill-rule="evenodd" clip-rule="evenodd" d="M31.5463 19.7504C31.5463 22.7905 29.0734 25.2595 26.0373 25.2595H7.96294C4.92677 25.2595 2.45381 22.7904 2.45381 19.7504V8.24998C2.45381 7.23537 2.73162 6.28242 3.21382 5.46455L12.033 14.2837C13.3524 15.607 15.1193 16.3361 17.002 16.3361C18.8808 16.3361 20.6477 15.607 21.9671 14.2837L30.7862 5.46455C31.2685 6.28242 31.5462 7.2353 31.5462 8.24998V19.7504H31.5463ZM26.0372 2.74092H7.96294C6.70913 2.74092 5.55171 3.16526 4.62584 3.87127L13.5337 12.783C14.4558 13.7012 15.6864 14.2104 17.002 14.2104C18.3136 14.2104 19.5443 13.7012 20.4663 12.783L29.3742 3.87127C28.4484 3.16526 27.2911 2.74092 26.0372 2.74092ZM26.0372 0.615234H7.96294C3.75396 0.615234 0.328125 4.04107 0.328125 8.25005V19.7505C0.328125 23.9633 3.75396 27.3853 7.96294 27.3853H26.0372C30.2462 27.3853 33.672 23.9633 33.672 19.7505V8.24998C33.672 4.041 30.2462 0.615234 26.0372 0.615234Z" fill="white"/>
</svg>
