<svg width="24" height="24" viewBox="0 0 24 24" fill="none" xmlns="http://www.w3.org/2000/svg">
<g clip-path="url(#clip0_2380_15085)">
<path d="M23.0947 20.3594H13.4697C13.0902 20.3594 12.7822 20.0374 12.7822 19.6406C12.7822 19.2439 12.7822 5.66237 12.7822 5.26562C12.7822 4.86887 13.0902 4.54688 13.4697 4.54688H23.0947C23.4742 4.54688 23.7822 4.86887 23.7822 5.26562V19.6406C23.7822 20.0374 23.4742 20.3594 23.0947 20.3594Z" fill="#ECEFF1"/>
<path d="M16.2197 8.85938H13.4697C13.0902 8.85938 12.7822 8.53737 12.7822 8.14062C12.7822 7.74387 13.0902 7.42188 13.4697 7.42188H16.2197C16.5992 7.42188 16.9072 7.74387 16.9072 8.14062C16.9072 8.53737 16.5992 8.85938 16.2197 8.85938Z" fill="#388E3C"/>
<path d="M16.2197 11.7344H13.4697C13.0902 11.7344 12.7822 11.4124 12.7822 11.0156C12.7822 10.6189 13.0902 10.2969 13.4697 10.2969H16.2197C16.5992 10.2969 16.9072 10.6189 16.9072 11.0156C16.9072 11.4124 16.5992 11.7344 16.2197 11.7344Z" fill="#388E3C"/>
<path d="M16.2197 14.6094H13.4697C13.0902 14.6094 12.7822 14.2874 12.7822 13.8906C12.7822 13.4939 13.0902 13.1719 13.4697 13.1719H16.2197C16.5992 13.1719 16.9072 13.4939 16.9072 13.8906C16.9072 14.2874 16.5992 14.6094 16.2197 14.6094Z" fill="#388E3C"/>
<path d="M16.2197 17.4844H13.4697C13.0902 17.4844 12.7822 17.1624 12.7822 16.7656C12.7822 16.3689 13.0902 16.0469 13.4697 16.0469H16.2197C16.5992 16.0469 16.9072 16.3689 16.9072 16.7656C16.9072 17.1624 16.5992 17.4844 16.2197 17.4844Z" fill="#388E3C"/>
<path d="M20.3447 8.85938H18.9697C18.5902 8.85938 18.2822 8.53737 18.2822 8.14062C18.2822 7.74387 18.5902 7.42188 18.9697 7.42188H20.3447C20.7242 7.42188 21.0322 7.74387 21.0322 8.14062C21.0322 8.53737 20.7242 8.85938 20.3447 8.85938Z" fill="#388E3C"/>
<path d="M20.3447 11.7344H18.9697C18.5902 11.7344 18.2822 11.4124 18.2822 11.0156C18.2822 10.6189 18.5902 10.2969 18.9697 10.2969H20.3447C20.7242 10.2969 21.0322 10.6189 21.0322 11.0156C21.0322 11.4124 20.7242 11.7344 20.3447 11.7344Z" fill="#388E3C"/>
<path d="M20.3447 14.6094H18.9697C18.5902 14.6094 18.2822 14.2874 18.2822 13.8906C18.2822 13.4939 18.5902 13.1719 18.9697 13.1719H20.3447C20.7242 13.1719 21.0322 13.4939 21.0322 13.8906C21.0322 14.2874 20.7242 14.6094 20.3447 14.6094Z" fill="#388E3C"/>
<path d="M20.3447 17.4844H18.9697C18.5902 17.4844 18.2822 17.1624 18.2822 16.7656C18.2822 16.3689 18.5902 16.0469 18.9697 16.0469H20.3447C20.7242 16.0469 21.0322 16.3689 21.0322 16.7656C21.0322 17.1624 20.7242 17.4844 20.3447 17.4844Z" fill="#388E3C"/>
<path d="M13.9084 1.83816C13.7516 1.70159 13.5412 1.64266 13.3432 1.68578L2.34323 3.84203C2.01735 3.90528 1.78223 4.20141 1.78223 4.54784V20.3603C1.78223 20.7053 2.01735 21.0029 2.34323 21.0662L13.3432 23.2224C13.3845 23.231 13.4271 23.2353 13.4697 23.2353C13.6292 23.2353 13.7846 23.1778 13.9084 23.07C14.0665 22.9335 14.1572 22.7293 14.1572 22.5166V2.39159C14.1572 2.17741 14.0665 1.97472 13.9084 1.83816Z" fill="#2E7D32"/>
<path d="M11.2365 14.8545L9.06258 12.2569L11.2612 9.30143C11.495 8.98805 11.44 8.53668 11.1416 8.2923C10.8432 8.04793 10.4115 8.10543 10.1763 8.41736L8.13996 11.1544L6.42396 9.10449C6.17233 8.80261 5.73783 8.7753 5.45458 9.03693C5.16858 9.29855 5.13971 9.7528 5.38996 10.0504L7.28058 12.3101L5.36383 14.8861C5.13008 15.1995 5.18508 15.6509 5.48346 15.8952C5.60996 15.9973 5.75983 16.0462 5.90696 16.0462C6.11183 16.0462 6.31396 15.9513 6.45008 15.7687L8.20321 13.4112L10.2025 15.7989C10.3386 15.9628 10.5283 16.0462 10.7195 16.0462C10.8803 16.0462 11.0412 15.9872 11.1718 15.8679C11.4578 15.6063 11.4867 15.1521 11.2365 14.8545Z" fill="#FAFAFA"/>
</g>
<path d="M7.34427 4.35478L4.35478 8.70956C1.9497 8.70956 0 6.75986 0 4.35478C0 1.9497 1.9497 0 4.35478 0L7.34427 4.35478Z" fill="white"/>
<path d="M8.71025 4.35478C8.71025 6.75986 6.76055 8.70956 4.35547 8.70956V0C6.76055 0 8.71025 1.9497 8.71025 4.35478Z" fill="white"/>
<path d="M4.35453 1.14453H3.77576V5.34744L2.60069 4.17229L1.78223 4.99091L4.35453 7.56322L4.70851 3.79185L4.35453 1.14453Z" fill="#219653"/>
<path d="M4.93327 5.34744V1.14453H4.35449V7.56322L6.9268 4.99091L6.10833 4.17229L4.93327 5.34744Z" fill="#219653"/>
<defs>
<clipPath id="clip0_2380_15085">
<rect width="22" height="23" fill="white" transform="translate(1.78223 0.953125)"/>
</clipPath>
</defs>
</svg>
