<svg width="22" height="22" viewBox="0 0 22 22" fill="none" xmlns="http://www.w3.org/2000/svg">
<circle cx="10.8168" cy="10.8168" r="10.2595" fill="white" stroke="#0FB900" stroke-width="1.11445"/>
<path d="M14.7175 4.0609C15.8942 4.74027 16.873 5.71516 17.5571 6.88906C18.2411 8.06296 18.6067 9.39516 18.6177 10.7538C18.6287 12.1124 18.2846 13.4504 17.6196 14.6352C16.9546 15.82 15.9917 16.8105 14.8262 17.5088C13.6606 18.2071 12.333 18.5889 10.9746 18.6164C9.61615 18.6439 8.27411 18.3161 7.0813 17.6656C5.88849 17.015 4.88627 16.0642 4.17385 14.9073C3.46144 13.7504 3.06353 12.4274 3.01953 11.0695L3.01562 10.8167L3.01953 10.564C3.06322 9.21669 3.45526 7.90373 4.15745 6.75308C4.85964 5.60243 5.848 4.65336 7.02618 3.9984C8.20435 3.34343 9.53214 3.00493 10.8801 3.01588C12.228 3.02684 13.5502 3.38688 14.7175 4.0609ZM13.7088 8.70494C13.5745 8.57062 13.3958 8.48993 13.2062 8.47801C13.0166 8.46609 12.8292 8.52375 12.6791 8.64019L12.6057 8.70494L10.0368 11.2731L9.02807 10.2652L8.95473 10.2004C8.80463 10.0841 8.61723 10.0265 8.42768 10.0384C8.23814 10.0504 8.05947 10.1311 7.92517 10.2654C7.79088 10.3997 7.71018 10.5783 7.69823 10.7679C7.68627 10.9574 7.74386 11.1448 7.86022 11.2949L7.92497 11.3683L9.48522 12.9285L9.55855 12.9932C9.69537 13.0994 9.86361 13.157 10.0368 13.157C10.2099 13.157 10.3782 13.0994 10.515 12.9932L10.5883 12.9285L13.7088 9.80802L13.7736 9.73469C13.89 9.58459 13.9477 9.39717 13.9358 9.20758C13.9238 9.01799 13.8431 8.83927 13.7088 8.70494Z" fill="#0FB900"/>
</svg>
