<svg width="203" height="72" viewBox="0 0 203 72" fill="none" xmlns="http://www.w3.org/2000/svg">
<mask id="mask0_1306_7535" style="mask-type:luminance" maskUnits="userSpaceOnUse" x="0" y="15" width="36" height="42">
<path d="M0.192871 15.3838H35.5492V56.4131H0.192871V15.3838Z" fill="white"/>
</mask>
<g mask="url(#mask0_1306_7535)">
<mask id="mask1_1306_7535" style="mask-type:luminance" maskUnits="userSpaceOnUse" x="0" y="15" width="36" height="42">
<path d="M17.8592 15.3838L35.5254 24.1947V47.5974L17.8592 56.4083L0.192871 47.5974V24.1947L17.8592 15.3838Z" fill="white"/>
</mask>
<g mask="url(#mask1_1306_7535)">
<path d="M17.8592 15.3838L35.5254 24.1947V47.5973L17.8592 56.4083L0.192871 47.5973V24.1947L17.8592 15.3838Z" stroke="white" stroke-width="3.24182"/>
</g>
</g>
<mask id="mask2_1306_7535" style="mask-type:luminance" maskUnits="userSpaceOnUse" x="8" y="24" width="20" height="24">
<path d="M8.08594 24.5488H27.6379V47.2415H8.08594V24.5488Z" fill="white"/>
</mask>
<g mask="url(#mask2_1306_7535)">
<mask id="mask3_1306_7535" style="mask-type:luminance" maskUnits="userSpaceOnUse" x="8" y="24" width="20" height="24">
<path d="M17.858 24.5483L27.6311 29.4225V42.3685L17.858 47.2426L8.08545 42.3685V29.4225L17.858 24.5483Z" fill="white"/>
</mask>
<g mask="url(#mask3_1306_7535)">
<path d="M17.858 24.5483L27.6311 29.4225V42.3685L17.858 47.2426L8.08545 42.3685V29.4225L17.858 24.5483Z" stroke="white" stroke-width="3.24182"/>
</g>
</g>
<mask id="mask4_1306_7535" style="mask-type:luminance" maskUnits="userSpaceOnUse" x="0" y="11" width="44" height="33">
<path d="M0.192871 11.6382H43.7126V43.0355H0.192871V11.6382Z" fill="white"/>
</mask>
<g mask="url(#mask4_1306_7535)">
<path d="M9.02282 20.9241L34.4338 33.8304" stroke="white" stroke-width="1.62091"/>
</g>
<mask id="mask5_1306_7535" style="mask-type:luminance" maskUnits="userSpaceOnUse" x="0" y="28" width="37" height="33">
<path d="M0.192871 28.4204H36.2693V60.2237H0.192871V28.4204Z" fill="white"/>
</mask>
<g mask="url(#mask5_1306_7535)">
<path d="M0.573242 37.6768L27.0579 50.9194" stroke="white" stroke-width="1.62091"/>
</g>
<path d="M67.9402 23.9409L58.6762 46.2857H56.4876L47.2236 23.9409H49.5053L57.6062 43.6784L65.7051 23.9409H67.9402Z" fill="white"/>
<path d="M91.914 36.4631H72.9674C73.1841 39.1941 74.0532 41.2812 75.5747 42.7244C77.0956 44.1681 79.0198 44.8898 81.3475 44.8898C83.2094 44.8898 84.7995 44.4557 86.118 43.5872C87.4375 42.7175 88.4387 41.4911 89.1228 39.9078L90.9836 40.7452C90.022 42.7006 88.6956 44.2062 87.004 45.2619C85.3123 46.316 83.3801 46.8436 81.2079 46.8436C79.6246 46.8436 78.1888 46.5645 76.9005 46.0063C75.6132 45.448 74.5115 44.6651 73.5954 43.6569C72.6803 42.6478 71.9746 41.4292 71.4787 40.0008C70.9823 38.573 70.7344 36.9897 70.7344 35.2515C70.7344 33.5461 70.9823 31.9633 71.4787 30.5042C71.9746 29.0452 72.6803 27.7886 73.5954 26.7339C74.5115 25.6782 75.6286 24.8557 76.947 24.2662C78.2665 23.6773 79.7488 23.3823 81.394 23.3823C82.9768 23.3823 84.412 23.654 85.6993 24.1964C86.9876 24.7394 88.0893 25.5233 89.0044 26.5479C89.9205 27.5713 90.6347 28.8052 91.1465 30.2484C91.6582 31.6921 91.914 33.2976 91.914 35.0654V36.4631ZM89.681 34.6467C89.588 31.6371 88.7887 29.3328 87.2831 27.7341C85.7775 26.1355 83.7988 25.3362 81.3475 25.3362C78.8956 25.3362 76.9095 26.1588 75.3886 27.8039C73.8671 29.4491 73.0446 31.7302 72.9209 34.6467H89.681Z" fill="white"/>
<path d="M106.067 23.6621C106.842 23.6621 107.619 23.7552 108.396 23.9412V25.9416C107.619 25.7555 106.858 25.6625 106.114 25.6625C104.127 25.6625 102.591 26.2837 101.504 27.5255C100.418 28.7678 99.876 30.4129 99.876 32.4609V46.286H97.7339V23.9412H99.7364L99.8294 27.0137C100.325 25.958 101.132 25.1354 102.249 24.546C103.366 23.9571 104.639 23.6621 106.067 23.6621Z" fill="white"/>
<path d="M122.826 23.3823C124.471 23.3823 125.968 23.6926 127.317 24.3127C128.667 24.9334 129.831 25.7792 130.808 26.8502C131.786 27.9202 132.547 29.1615 133.09 30.574C133.634 31.9866 133.906 33.4995 133.906 35.1119C133.906 36.7264 133.634 38.2394 133.09 39.6519C132.547 41.0645 131.786 42.3068 130.808 43.3778C129.831 44.4478 128.667 45.2931 127.317 45.9132C125.968 46.5333 124.471 46.8436 122.826 46.8436C121.181 46.8436 119.683 46.5333 118.332 45.9132C116.983 45.2931 115.819 44.4478 114.841 43.3778C113.864 42.3068 113.104 41.0645 112.562 39.6519C112.019 38.2394 111.748 36.7264 111.748 35.1119C111.748 33.4995 112.019 31.9866 112.562 30.574C113.104 29.1615 113.864 27.9202 114.841 26.8502C115.819 25.7792 116.983 24.9334 118.332 24.3127C119.683 23.6926 121.181 23.3823 122.826 23.3823ZM122.826 44.8898C124.161 44.8898 125.371 44.6418 126.457 44.1454C127.543 43.648 128.474 42.957 129.25 42.0731C130.027 41.1882 130.624 40.1563 131.043 38.9774C131.462 37.7974 131.671 36.5091 131.671 35.1119C131.671 33.7163 131.462 32.4296 131.043 31.2507C130.624 30.0708 130.027 29.0388 129.25 28.1549C128.474 27.27 127.543 26.579 126.457 26.0826C125.371 25.5852 124.161 25.3362 122.826 25.3362C121.492 25.3362 120.282 25.5852 119.195 26.0826C118.109 26.579 117.178 27.27 116.402 28.1549C115.626 29.0388 115.028 30.0708 114.609 31.2507C114.19 32.4296 113.981 33.7163 113.981 35.1119C113.981 36.5091 114.19 37.7974 114.609 38.9774C115.028 40.1563 115.626 41.1882 116.402 42.0731C117.178 42.957 118.109 43.648 119.195 44.1454C120.282 44.6418 121.492 44.8898 122.826 44.8898Z" fill="white"/>
<path d="M136.7 46.2857L144.801 35.0192L136.746 23.9409H139.354C140.191 25.0574 141.075 26.2522 142.005 27.5251C142.937 28.7981 143.931 30.1789 144.987 31.6676L146.336 33.5306L153.181 23.9409H155.786L147.641 35.1123L155.832 46.2857H153.181C151.504 44.0517 150.092 42.1427 148.943 40.5594C147.795 38.9767 146.88 37.7042 146.196 36.7426L139.354 46.2857H136.7Z" fill="white"/>
<path d="M169.706 23.3823C171.351 23.3823 172.848 23.6926 174.197 24.3127C175.547 24.9334 176.711 25.7792 177.688 26.8502C178.666 27.9202 179.427 29.1615 179.97 30.574C180.514 31.9866 180.786 33.4995 180.786 35.1119C180.786 36.7264 180.514 38.2394 179.97 39.6519C179.427 41.0645 178.666 42.3068 177.688 43.3778C176.711 44.4478 175.547 45.2931 174.197 45.9132C172.848 46.5333 171.351 46.8436 169.706 46.8436C168.061 46.8436 166.562 46.5333 165.212 45.9132C163.863 45.2931 162.699 44.4478 161.721 43.3778C160.744 42.3068 159.984 41.0645 159.442 39.6519C158.899 38.2394 158.627 36.7264 158.627 35.1119C158.627 33.4995 158.899 31.9866 159.442 30.574C159.984 29.1615 160.744 27.9202 161.721 26.8502C162.699 25.7792 163.863 24.9334 165.212 24.3127C166.562 23.6926 168.061 23.3823 169.706 23.3823ZM169.706 44.8898C171.041 44.8898 172.251 44.6418 173.336 44.1454C174.423 43.648 175.354 42.957 176.13 42.0731C176.906 41.1882 177.504 40.1563 177.923 38.9774C178.342 37.7974 178.551 36.5091 178.551 35.1119C178.551 33.7163 178.342 32.4296 177.923 31.2507C177.504 30.0708 176.906 29.0388 176.13 28.1549C175.354 27.27 174.423 26.579 173.336 26.0826C172.251 25.5852 171.041 25.3362 169.706 25.3362C168.372 25.3362 167.162 25.5852 166.075 26.0826C164.989 26.579 164.058 27.27 163.282 28.1549C162.506 29.0388 161.908 30.0708 161.488 31.2507C161.07 32.4296 160.86 33.7163 160.86 35.1119C160.86 36.5091 161.07 37.7974 161.488 38.9774C161.908 40.1563 162.506 41.1882 163.282 42.0731C164.058 42.957 164.989 43.648 166.075 44.1454C167.162 44.6418 168.372 44.8898 169.706 44.8898Z" fill="white"/>
<path d="M192.796 44.8898C194.41 44.8898 195.783 44.5488 196.915 43.8663C198.048 43.1828 198.615 42.0493 198.615 40.466C198.615 38.4181 197.327 37.0679 194.752 36.4166L191.075 35.4397C187.35 34.4458 185.488 32.4597 185.488 29.4808C185.488 27.7119 186.139 26.2534 187.442 25.1057C188.745 23.957 190.515 23.3823 192.749 23.3823C194.797 23.3823 196.52 23.8486 197.917 24.7801C199.314 25.7105 200.106 27.0131 200.292 28.6878L198.429 29.153C198.243 27.9747 197.63 27.0443 196.589 26.3618C195.55 25.6782 194.286 25.3362 192.796 25.3362C191.181 25.3362 189.901 25.7327 188.954 26.5246C188.007 27.3154 187.535 28.3167 187.535 29.5273C187.535 31.5446 188.854 32.8948 191.493 33.5767L195.17 34.5537C196.939 35.0189 198.305 35.7643 199.266 36.7888C200.229 37.8122 200.711 39.0382 200.711 40.466C200.711 42.4215 200.004 43.9736 198.592 45.1224C197.179 46.27 195.247 46.8436 192.796 46.8436C190.654 46.8436 188.87 46.3472 187.442 45.355C186.015 44.3611 185.193 43.0263 184.976 41.3499L186.837 40.9313C187.054 42.1424 187.682 43.105 188.721 43.8198C189.761 44.5334 191.119 44.8898 192.796 44.8898Z" fill="white"/>
</svg>




 