<svg width="33" height="41" viewBox="0 0 33 41" fill="none" xmlns="http://www.w3.org/2000/svg">
<g filter="url(#filter0_d_2389_16105)">
<rect x="9.35303" y="4.45703" width="13.9706" height="15.4412" fill="white"/>
<path d="M14.5 0.0957031C7.55556 0.0957031 2 5.50152 2 12.2588C2 19.016 7.55556 24.4219 14.5 32.5306C21.4444 24.4219 27 19.016 27 12.2588C27 5.50152 21.4444 0.0957031 14.5 0.0957031ZM14.5 8.20442C16.8054 8.20442 18.6667 10.0156 18.6667 12.2588C18.6667 14.502 16.8054 16.3131 14.5 16.3131C12.1946 16.3131 10.3333 14.502 10.3333 12.2588C10.3333 10.0156 12.1946 8.20442 14.5 8.20442Z" fill="#D60000"/>
</g>
<defs>
<filter id="filter0_d_2389_16105" x="0" y="0.0957031" width="33" height="40.4355" filterUnits="userSpaceOnUse" color-interpolation-filters="sRGB">
<feFlood flood-opacity="0" result="BackgroundImageFix"/>
<feColorMatrix in="SourceAlpha" type="matrix" values="0 0 0 0 0 0 0 0 0 0 0 0 0 0 0 0 0 0 127 0" result="hardAlpha"/>
<feOffset dx="2" dy="4"/>
<feGaussianBlur stdDeviation="2"/>
<feComposite in2="hardAlpha" operator="out"/>
<feColorMatrix type="matrix" values="0 0 0 0 0 0 0 0 0 0 0 0 0 0 0 0 0 0 0.35 0"/>
<feBlend mode="normal" in2="BackgroundImageFix" result="effect1_dropShadow_2389_16105"/>
<feBlend mode="normal" in="SourceGraphic" in2="effect1_dropShadow_2389_16105" result="shape"/>
</filter>
</defs>
</svg>
