<svg width="24" height="24" viewBox="0 0 24 24" fill="none" xmlns="http://www.w3.org/2000/svg">
<path d="M6.42188 0C6.03356 0 5.71875 0.314812 5.71875 0.703125V23.2969C5.71875 23.6852 6.03356 24 6.42188 24H14.8594L15.3281 22.3673V1.557L14.8594 0L6.42188 0Z" fill="#F0F7FF"/>
<path d="M20.1825 3.19214L18.3281 0H14.8594V24H23.2969C23.6852 24 24 23.6852 24 23.2969V4.92188L20.1825 3.19214Z" fill="#DDEDFF"/>
<path d="M18.7969 4.92188H24L18.3281 0V4.45312C18.3281 4.71202 18.538 4.92188 18.7969 4.92188Z" fill="#BFD7FF"/>
<path d="M12.9822 15.2657V18.6055H11.6969C11.4046 18.6055 11.2582 18.959 11.4649 19.1657L14.5284 22.2291C14.6199 22.3207 14.7399 22.3664 14.8598 22.3664L15.3286 21.7547V15.7616L14.8598 15.2656L12.9822 15.2657Z" fill="#00EC86"/>
<path d="M18.0223 18.6055H16.737V15.2656H14.8594V22.3663C14.9793 22.3663 15.0993 22.3206 15.1908 22.229L18.2543 19.1656C18.461 18.9589 18.3146 18.6055 18.0223 18.6055Z" fill="#00CA8F"/>
<path d="M0.703125 5.85938C0.314812 5.85938 0 6.17419 0 6.5625V15.0469C0 15.4352 0.314812 15.75 0.703125 15.75H9.51562L9.98438 15.0352V6.49622L9.51562 5.85938H0.703125Z" fill="#FF597D"/>
<path d="M18.3281 5.85938H9.51562V15.75H18.3281C18.7164 15.75 19.0312 15.4352 19.0312 15.0469V6.5625C19.0312 6.17419 18.7164 5.85938 18.3281 5.85938Z" fill="#FF306D"/>
<path d="M4.75781 7.98074L3.38672 8.00357C3.003 8.00999 2.69531 8.32283 2.69531 8.7066V12.9253C2.69531 13.3137 3.01012 13.6285 3.39844 13.6285C3.78675 13.6285 4.10156 13.3137 4.10156 12.9253V12.2222H4.79316C5.96264 12.2222 6.91406 11.2708 6.91406 10.1013C6.91406 8.92415 5.95369 7.96194 4.75781 7.98074ZM4.79316 10.816H4.10156V9.39815L4.78125 9.3868C5.17978 9.37982 5.50781 9.70086 5.50781 10.1014C5.50781 10.4954 5.18723 10.816 4.79316 10.816Z" fill="#F0F7FF"/>
<path d="M9.02344 12.2227V9.41016C9.19655 9.41016 9.36234 9.4418 9.51562 9.49927L9.98438 8.7735L9.51562 8.04792C9.35569 8.01956 9.19139 8.00391 9.02344 8.00391H8.32031C7.932 8.00391 7.61719 8.31872 7.61719 8.70703V12.9258C7.61719 13.3141 7.932 13.6289 8.32031 13.6289H9.02344C9.19139 13.6289 9.35569 13.6133 9.51562 13.5849L9.98438 12.8216L9.51562 12.1335C9.36234 12.191 9.19655 12.2227 9.02344 12.2227Z" fill="#F0F7FF"/>
<path d="M11.8359 10.8154C11.8359 9.4325 10.8324 8.28041 9.51562 8.04688V9.49822C10.049 9.69819 10.4297 10.2131 10.4297 10.8154C10.4297 11.4177 10.049 11.9326 9.51562 12.1325V13.5838C10.8324 13.3503 11.8359 12.1982 11.8359 10.8154Z" fill="#DDEDFF"/>
<path d="M15.6328 8.00391H13.2422C12.8539 8.00391 12.5391 8.31872 12.5391 8.70703V12.9258C12.5391 13.3141 12.8539 13.6289 13.2422 13.6289C13.6305 13.6289 13.9453 13.3141 13.9453 12.9258V12.2227H14.8828C15.2711 12.2227 15.5859 11.9078 15.5859 11.5195C15.5859 11.1312 15.2711 10.8164 14.8828 10.8164H13.9453V9.41016H15.6328C16.0211 9.41016 16.3359 9.09534 16.3359 8.70703C16.3359 8.31872 16.0211 8.00391 15.6328 8.00391Z" fill="#DDEDFF"/>
</svg>
