<svg width="16" height="16" viewBox="0 0 16 16" fill="none" xmlns="http://www.w3.org/2000/svg">
<path d="M2.66699 8.66683C2.83023 7.37081 3.46343 6.17977 4.44649 5.31959C5.42955 4.45941 6.69411 3.98992 8.00033 4.00016C8.86302 4.00108 9.71262 4.21126 10.4762 4.61267C11.2399 5.01408 11.8947 5.59474 12.3846 6.30485C12.8745 7.01495 13.1848 7.83329 13.289 8.68968C13.3931 9.54607 13.288 10.4149 12.9825 11.2218C12.6771 12.0286 12.1805 12.7493 11.5353 13.322C10.8902 13.8947 10.1157 14.3024 9.27837 14.51C8.44103 14.7177 7.56582 14.7191 6.72781 14.5142C5.88981 14.3093 5.11402 13.9041 4.46699 13.3335L2.66699 11.7335" stroke="black" stroke-width="1.33333" stroke-linecap="round" stroke-linejoin="round"/>
<path d="M6.00033 11.3335H2.66699V14.6668" stroke="black" stroke-width="1.33333" stroke-linecap="round" stroke-linejoin="round"/>
</svg>
