<svg width="23" height="24" viewBox="0 0 23 24" fill="none" xmlns="http://www.w3.org/2000/svg">
<g clip-path="url(#clip0_2380_15108)">
<path d="M21.877 20.3594H12.252C11.8725 20.3594 11.5645 20.0374 11.5645 19.6406C11.5645 19.2439 11.5645 5.66237 11.5645 5.26562C11.5645 4.86887 11.8725 4.54688 12.252 4.54688H21.877C22.2565 4.54688 22.5645 4.86887 22.5645 5.26562V19.6406C22.5645 20.0374 22.2565 20.3594 21.877 20.3594Z" fill="#ECEFF1"/>
<path d="M15.002 8.85938H12.252C11.8725 8.85938 11.5645 8.53737 11.5645 8.14062C11.5645 7.74387 11.8725 7.42188 12.252 7.42188H15.002C15.3815 7.42188 15.6895 7.74387 15.6895 8.14062C15.6895 8.53737 15.3815 8.85938 15.002 8.85938Z" fill="#38658E"/>
<path d="M15.002 11.7344H12.252C11.8725 11.7344 11.5645 11.4124 11.5645 11.0156C11.5645 10.6189 11.8725 10.2969 12.252 10.2969H15.002C15.3815 10.2969 15.6895 10.6189 15.6895 11.0156C15.6895 11.4124 15.3815 11.7344 15.002 11.7344Z" fill="#38658E"/>
<path d="M15.002 14.6094H12.252C11.8725 14.6094 11.5645 14.2874 11.5645 13.8906C11.5645 13.4939 11.8725 13.1719 12.252 13.1719H15.002C15.3815 13.1719 15.6895 13.4939 15.6895 13.8906C15.6895 14.2874 15.3815 14.6094 15.002 14.6094Z" fill="#38658E"/>
<path d="M15.002 17.4844H12.252C11.8725 17.4844 11.5645 17.1624 11.5645 16.7656C11.5645 16.3689 11.8725 16.0469 12.252 16.0469H15.002C15.3815 16.0469 15.6895 16.3689 15.6895 16.7656C15.6895 17.1624 15.3815 17.4844 15.002 17.4844Z" fill="#38658E"/>
<path d="M19.127 8.85938H17.752C17.3725 8.85938 17.0645 8.53737 17.0645 8.14062C17.0645 7.74387 17.3725 7.42188 17.752 7.42188H19.127C19.5065 7.42188 19.8145 7.74387 19.8145 8.14062C19.8145 8.53737 19.5065 8.85938 19.127 8.85938Z" fill="#38658E"/>
<path d="M19.127 11.7344H17.752C17.3725 11.7344 17.0645 11.4124 17.0645 11.0156C17.0645 10.6189 17.3725 10.2969 17.752 10.2969H19.127C19.5065 10.2969 19.8145 10.6189 19.8145 11.0156C19.8145 11.4124 19.5065 11.7344 19.127 11.7344Z" fill="#38658E"/>
<path d="M19.127 14.6094H17.752C17.3725 14.6094 17.0645 14.2874 17.0645 13.8906C17.0645 13.4939 17.3725 13.1719 17.752 13.1719H19.127C19.5065 13.1719 19.8145 13.4939 19.8145 13.8906C19.8145 14.2874 19.5065 14.6094 19.127 14.6094Z" fill="#38658E"/>
<path d="M19.127 17.4844H17.752C17.3725 17.4844 17.0645 17.1624 17.0645 16.7656C17.0645 16.3689 17.3725 16.0469 17.752 16.0469H19.127C19.5065 16.0469 19.8145 16.3689 19.8145 16.7656C19.8145 17.1624 19.5065 17.4844 19.127 17.4844Z" fill="#38658E"/>
<path d="M12.6906 1.83816C12.5338 1.70159 12.3235 1.64266 12.1255 1.68578L1.12545 3.84203C0.799578 3.90528 0.564453 4.20141 0.564453 4.54784V20.3603C0.564453 20.7053 0.799578 21.0029 1.12545 21.0662L12.1255 23.2224C12.1667 23.231 12.2093 23.2353 12.252 23.2353C12.4115 23.2353 12.5668 23.1778 12.6906 23.07C12.8487 22.9335 12.9395 22.7293 12.9395 22.5166V2.39159C12.9395 2.17741 12.8487 1.97472 12.6906 1.83816Z" fill="#0563BA"/>
<path d="M10.0187 14.8545L7.84481 12.2569L10.0434 9.30143C10.2772 8.98805 10.2222 8.53668 9.92381 8.2923C9.62543 8.04793 9.19368 8.10543 8.95856 8.41736L6.92218 11.1544L5.20618 9.10449C4.95456 8.80261 4.52006 8.7753 4.23681 9.03693C3.95081 9.29855 3.92193 9.7528 4.17218 10.0504L6.06281 12.3101L4.14606 14.8861C3.91231 15.1995 3.96731 15.6509 4.26568 15.8952C4.39218 15.9973 4.54206 16.0462 4.68918 16.0462C4.89406 16.0462 5.09618 15.9513 5.23231 15.7687L6.98543 13.4112L8.98468 15.7989C9.12081 15.9628 9.31056 16.0462 9.50168 16.0462C9.66256 16.0462 9.82343 15.9872 9.95406 15.8679C10.2401 15.6063 10.2689 15.1521 10.0187 14.8545Z" fill="#FAFAFA"/>
</g>
<defs>
<clipPath id="clip0_2380_15108">
<rect width="22" height="23" fill="white" transform="translate(0.564453 0.953125)"/>
</clipPath>
</defs>
</svg>
