<svg width="24" height="24" viewBox="0 0 24 24" fill="none" xmlns="http://www.w3.org/2000/svg">
<g clip-path="url(#clip0_7268_12830)">
<path d="M19.1096 1.78516H8.09961V6.35089H21.461V4.13568C21.461 2.83948 20.4061 1.78516 19.1096 1.78516Z" fill="#CCF4FF"/>
<path d="M12.8773 7.05157H0V2.81506C0 1.2627 1.26324 0 2.81616 0H6.93347C7.34271 0 7.73694 0.0862427 8.09509 0.248291C8.59534 0.473694 9.02509 0.845215 9.32648 1.33063L12.8773 7.05157Z" fill="#BC7C1B"/>
<path d="M24 7.99854V21.645C24 22.9429 22.9435 23.9985 21.6451 23.9985H2.35492C1.05652 23.9985 0 22.9429 0 21.645V5.64453H21.6451C22.9435 5.64453 24 6.7005 24 7.99854Z" fill="#D3780D"/>
<path d="M24 7.99854V21.645C24 22.9429 22.9435 23.9985 21.6451 23.9985H12V5.64453H21.6451C22.9435 5.64453 24 6.7005 24 7.99854Z" fill="#BC7C1B"/>
<path d="M18.3127 14.8209C18.3127 18.3023 15.4807 21.1346 11.9996 21.1346C8.51862 21.1346 5.68652 18.3023 5.68652 14.8209C5.68652 11.3401 8.51862 8.50781 11.9996 8.50781C15.4807 8.50781 18.3127 11.3401 18.3127 14.8209Z" fill="white"/>
<path d="M18.3131 14.8209C18.3131 18.3023 15.481 21.1346 12 21.1346V8.50781C15.481 8.50781 18.3131 11.3401 18.3131 14.8209Z" fill="#CCF4FF"/>
<path d="M14.1188 15.7722L12.727 17.4224C12.5456 17.637 12.2808 17.7602 11.9996 17.7602C11.7183 17.7602 11.4535 17.637 11.2721 17.4224L9.88031 15.7722C9.63 15.4756 9.66809 15.0321 9.96472 14.7818C10.0964 14.6703 10.2577 14.6159 10.4175 14.6159C10.6177 14.6159 10.8165 14.7007 10.9557 14.8657L11.2964 15.2698V12.625C11.2964 12.237 11.6114 11.9219 11.9996 11.9219C12.3878 11.9219 12.7027 12.237 12.7027 12.625V15.2698L13.0435 14.8657C13.2943 14.569 13.7376 14.5309 14.0344 14.7818C14.3311 15.0321 14.3691 15.4756 14.1188 15.7722Z" fill="#D3780D"/>
<path d="M14.1193 15.7722L12.7275 17.4224C12.546 17.637 12.2813 17.7602 12 17.7602V11.9219C12.3882 11.9219 12.7031 12.237 12.7031 12.625V15.2698L13.0439 14.8657C13.2947 14.569 13.738 14.5309 14.0349 14.7818C14.3315 15.0321 14.3696 15.4756 14.1193 15.7722Z" fill="#BC7C1B"/>
</g>
<defs>
<clipPath id="clip0_7268_12830">
<rect width="24" height="24" fill="white"/>
</clipPath>
</defs>
</svg>
