<svg width="575" height="432" viewBox="0 0 575 432" fill="none" xmlns="http://www.w3.org/2000/svg">
<path d="M130.854 414.244H453.453C496.424 372.296 523.119 313.758 523.119 248.96C523.119 121.408 419.711 18.0002 292.159 18.0002C164.608 18.0002 61.1885 121.408 61.1885 248.971C61.1885 313.758 87.8835 372.307 130.854 414.244Z" fill="#F4EEFF"/>
<path d="M407.112 350.659H208.816C191.248 350.659 177.007 336.418 177.007 318.85V138.572C177.007 121.004 191.248 106.762 208.816 106.762H407.101C424.669 106.762 438.91 121.004 438.91 138.572V318.85C438.921 336.418 424.68 350.659 407.112 350.659Z" stroke="#E1D7F7" stroke-width="1.124" stroke-linecap="round" stroke-linejoin="round" stroke-dasharray="4.51 4.51"/>
<path d="M435.605 150.733C451.962 150.733 465.222 137.473 465.222 121.116C465.222 104.759 451.962 91.4985 435.605 91.4985C419.247 91.4985 405.987 104.759 405.987 121.116C405.987 137.473 419.247 150.733 435.605 150.733Z" fill="white"/>
<path d="M252.478 71.5896C254.786 57.2604 245.041 43.7735 230.711 41.4659C216.382 39.1582 202.895 48.9036 200.588 63.2329C198.28 77.5621 208.025 91.0489 222.355 93.3566C236.684 95.6643 250.171 85.9189 252.478 71.5896Z" fill="white"/>
<path d="M185.473 257.449C186.582 252.735 183.66 248.016 178.947 246.907C174.234 245.798 169.514 248.72 168.405 253.433C167.296 258.146 170.218 262.866 174.931 263.975C179.645 265.084 184.364 262.162 185.473 257.449Z" fill="white"/>
<path d="M488.349 268.59C491.896 265.044 491.896 259.293 488.349 255.747C484.803 252.2 479.053 252.2 475.506 255.747C471.959 259.293 471.959 265.044 475.506 268.59C479.052 272.137 484.803 272.137 488.349 268.59Z" fill="#E1D7F7"/>
<path d="M455.443 123.612V116.171H450.936C450.475 114.496 449.767 112.922 448.822 111.517L451.857 108.482L446.597 103.222L443.337 106.482C442.09 105.785 440.741 105.268 439.325 104.931V100.041H431.884V104.942C430.591 105.257 429.366 105.717 428.22 106.324L424.454 102.559L419.194 107.819L422.633 111.259C421.599 112.731 420.824 114.383 420.34 116.159H415.766V123.6H420.093C420.419 125.185 420.992 126.68 421.757 128.051L418.531 131.277L423.791 136.538L426.792 133.536C428.321 134.559 430.04 135.312 431.884 135.762V139.718H439.325V135.773C441.292 135.301 443.124 134.469 444.731 133.345L447.564 136.178L452.824 130.918L449.665 127.759C450.351 126.467 450.868 125.061 451.172 123.589H455.443V123.612ZM426.758 120.374C426.758 115.474 430.726 111.495 435.638 111.495C440.539 111.495 444.518 115.463 444.518 120.374C444.518 125.286 440.55 129.254 435.638 129.254C430.737 129.243 426.758 125.275 426.758 120.374Z" fill="#E1D7F7"/>
<path d="M227.958 82.9898H225.193C223.934 82.9898 222.911 81.967 222.911 80.7081V76.2908H230.228V80.7081C230.228 81.9782 229.217 82.9898 227.958 82.9898Z" fill="#C5BAE2"/>
<path d="M237.826 63.1399C237.826 56.4746 232.049 51.1581 225.237 51.9224C220.269 52.4732 216.167 56.3847 215.391 61.319C214.593 66.4332 217.234 71.0192 221.348 73.1548V73.9303C221.348 75.7624 222.832 77.2349 224.653 77.2349H228.418C230.25 77.2349 231.723 75.7512 231.723 73.9303V73.1548C235.353 71.2777 237.826 67.501 237.826 63.1399Z" fill="#E1D7F7"/>
<path d="M226.294 75.2677C226.002 75.2677 225.766 75.0316 225.766 74.7394V65.6013C225.766 65.309 226.002 65.073 226.294 65.073C226.586 65.073 226.822 65.309 226.822 65.6013V74.7394C226.822 75.0316 226.586 75.2677 226.294 75.2677Z" fill="#F4EEFF"/>
<path d="M373.818 62.6455H359.24L351.956 75.268L359.24 87.9018H373.818L381.113 75.268L373.818 62.6455Z" stroke="white" stroke-width="1.124" stroke-miterlimit="10"/>
<path d="M478.215 160.029H467.492L462.131 169.313L467.492 178.609H478.215L483.577 169.313L478.215 160.029Z" stroke="#E1D7F7" stroke-width="1.124" stroke-miterlimit="10"/>
<path d="M306.704 56.8118C310.217 56.8118 313.065 53.9635 313.065 50.45C313.065 46.9364 310.217 44.0881 306.704 44.0881C303.19 44.0881 300.342 46.9364 300.342 50.45C300.342 53.9635 303.19 56.8118 306.704 56.8118Z" stroke="#E1D7F7" stroke-width="1.124" stroke-miterlimit="10"/>
<path d="M174.532 84.9571C174.532 88.4752 171.689 91.3189 168.17 91.3189C164.652 91.3189 161.809 88.4752 161.809 84.9571C161.809 81.4389 164.652 78.5952 168.17 78.5952C171.689 78.6065 174.532 81.4502 174.532 84.9571Z" stroke="#E1D7F7" stroke-width="1.124" stroke-miterlimit="10"/>
<path d="M84.0173 186.071H56.8278C54.5123 186.071 52.624 187.948 52.624 190.275V199.807C52.624 202.122 54.5011 204.01 56.8278 204.01H77.397L82.736 210.293C83.1406 210.777 83.9387 210.485 83.9387 209.855V204.01H84.0061C86.3215 204.01 88.2099 202.133 88.2099 199.807V190.275C88.2099 187.96 86.3328 186.071 84.0173 186.071Z" fill="#E1D7F7"/>
<path d="M455.612 208.619H487.905C490.658 208.619 492.895 210.856 492.895 213.61V224.94C492.895 227.693 490.658 229.93 487.905 229.93H463.469L457.118 237.394C456.635 237.967 455.691 237.618 455.691 236.865V229.919H455.601C452.847 229.919 450.61 227.682 450.61 224.928V213.598C450.622 210.856 452.858 208.619 455.612 208.619Z" fill="white"/>
<path d="M477.642 342.105C477.642 342.105 482.206 341.835 482.071 336.462C481.936 331.09 484.352 325.852 490.4 326.256C496.447 326.661 497.649 322.098 496.986 318.062C496.323 314.027 501.55 309.329 506.124 311.476C510.688 313.623 513.644 311.071 513.644 306.912C513.644 302.753 519.421 299.662 522.917 300.73C522.917 300.73 519.151 304.496 520.905 310.666C522.658 316.837 520.905 323.828 514.993 325.975C509.08 328.122 506.664 328.347 508.148 335.024C509.62 341.689 506.27 346.533 500.291 347.601C494.311 348.68 500.493 356.245 495.795 361.662C491.096 367.08 481.689 368.395 481.689 368.395L463.828 343.982C463.806 343.982 469.313 340.756 477.642 342.105Z" fill="#5873E3"/>
<path d="M466.538 343.746C466.538 343.746 469.741 335.17 465.942 325.897C462.143 316.613 466.976 316.455 469.415 321.075C471.854 325.694 469.988 338.261 469.988 338.261C469.988 338.261 475.665 331.213 474.203 319.58C472.742 307.935 472.787 305.17 475.316 304.496C479.778 303.304 481.79 321.48 476.732 330.786C476.732 330.786 484.241 326.369 484.904 313.982C485.567 301.596 485.96 297.28 489.996 297.28C494.031 297.28 490.513 316.882 484.983 324.323C484.983 324.323 494.514 315.803 500.516 318.568C506.518 321.322 485.196 322.705 478.969 333.259C478.969 333.259 492.603 326.897 497.448 331.168C502.292 335.44 483.668 333.124 475.001 339.048C466.324 344.971 466.931 346.826 466.931 346.826L466.538 343.746Z" fill="#6F6FB2"/>
<path d="M173.803 346.578C173.803 346.578 170.599 338.002 174.399 328.729C178.198 319.445 173.364 319.287 170.925 323.907C168.486 328.527 170.352 341.093 170.352 341.093C170.352 341.093 164.676 334.045 166.137 322.412C167.598 310.767 167.553 308.002 165.024 307.328C160.562 306.136 158.55 324.312 163.608 333.618C163.608 333.618 156.1 329.201 155.437 316.814C154.773 304.428 154.38 300.112 150.345 300.112C146.31 300.112 149.828 319.714 155.358 327.155C155.358 327.155 145.826 318.635 139.824 321.4C133.822 324.154 155.144 325.537 161.371 336.091C161.371 336.091 147.737 329.729 142.893 334C138.048 338.272 156.673 335.956 165.339 341.88C174.016 347.803 173.409 349.658 173.409 349.658L173.803 346.578Z" fill="#6F6FB2"/>
<path d="M522.906 406.959H51.6016V381.861C51.6016 374.431 57.6262 368.417 65.0446 368.417H509.452C516.881 368.417 522.895 374.442 522.895 381.861V406.959H522.906Z" fill="#C5BCE8"/>
<path d="M482.398 351.175V368.417H101.901V351.175C101.901 343.959 107.757 338.114 114.973 338.114H469.326C476.542 338.114 482.398 343.959 482.398 351.175Z" fill="#E1D7F7"/>
<path d="M482.398 358.762H101.901V368.406H482.398V358.762Z" fill="#D4C9F2"/>
<path d="M522.895 396.09H51.6016V406.959H522.895V396.09Z" fill="#F4F7FE"/>
<path d="M543.712 406.959H33V413.231H543.712V406.959Z" fill="#A28FE8"/>
<path d="M408.832 338.103H191.799L206.242 293.739L208.861 285.713L211.446 277.789H390.072L392.5 285.59L395.029 293.716L408.832 338.103Z" fill="#8C8CEA"/>
<path d="M311.313 90.1147H287.552V109.616H311.313V90.1147Z" fill="#CE9E4A"/>
<path d="M395.028 293.716C391.33 299.089 387.183 304.124 382.631 308.777C369.547 322.164 353.227 332.37 334.917 338.103H266.319C241.658 330.369 220.595 314.544 206.241 293.738L208.86 285.724C229.767 313.611 263.093 331.662 300.624 331.662C332.759 331.662 361.814 318.433 382.631 297.122C386.16 293.502 389.464 289.658 392.499 285.601L395.028 293.716Z" fill="#7878D1"/>
<path d="M322.261 93.7004H276.391C275.256 93.7004 274.334 92.7787 274.334 91.6434V78.2791C274.334 77.1439 275.256 76.2222 276.391 76.2222H322.261C323.397 76.2222 324.318 77.1439 324.318 78.2791V91.6434C324.318 92.7787 323.397 93.7004 322.261 93.7004Z" fill="#E79142"/>
<path d="M414.958 217.025C414.958 248.194 402.515 276.451 382.339 297.11C361.523 318.421 332.478 331.651 300.332 331.651C237.028 331.651 185.718 280.329 185.718 217.025C185.718 192.297 193.541 169.402 206.86 150.687C206.871 150.676 206.871 150.676 206.871 150.676C227.654 121.463 261.768 102.411 300.332 102.411C363.647 102.411 414.958 153.733 414.958 217.025Z" fill="#5873E3"/>
<path d="M300.141 102.187C270.422 102.187 243.356 113.505 222.989 132.062C241.94 118.204 265.297 110.032 290.564 110.032C353.868 110.032 405.19 161.354 405.19 224.646C405.19 255.815 392.747 284.072 372.571 304.731C371.02 306.327 377.719 301.438 382.148 296.886C402.323 276.227 414.766 247.969 414.766 216.801C414.766 153.497 363.444 102.187 300.141 102.187Z" fill="#CACAFF"/>
<path d="M382.339 297.111C361.523 318.422 332.478 331.651 300.332 331.651C237.028 331.651 185.718 280.33 185.718 217.026C185.718 192.298 193.541 169.402 206.86 150.688C206.871 150.676 206.871 150.676 206.871 150.676L382.339 297.111Z" fill="#9B9BF9"/>
<path d="M388.095 217.026C388.095 241.484 378.091 263.605 361.939 279.52C346.102 295.144 324.341 304.788 300.333 304.788C251.866 304.788 212.582 265.493 212.582 217.026C212.582 197.918 218.685 180.238 229.071 165.828C244.987 143.696 270.985 129.275 300.333 129.275C348.811 129.275 388.095 168.559 388.095 217.026Z" fill="#F4EEFF"/>
<path d="M300.635 156.476C298.32 156.476 296.454 154.599 296.454 152.295V140.639C296.454 138.323 298.331 136.458 300.635 136.458C302.951 136.458 304.817 138.335 304.817 140.639V146.472V152.306C304.817 154.599 302.94 156.476 300.635 156.476Z" fill="#6F6FB2"/>
<path d="M361.95 279.52C346.113 295.144 324.352 304.788 300.343 304.788C251.877 304.788 212.593 265.493 212.593 217.026C212.593 197.918 218.696 180.237 229.082 165.828L361.95 279.52Z" fill="#E5E1FF"/>
<path d="M341.998 174.561C340.852 173.516 340.762 171.74 341.807 170.593L347.067 164.793C348.113 163.647 349.888 163.557 351.035 164.602C352.181 165.648 352.271 167.424 351.226 168.57L348.596 171.47L345.966 174.37C344.92 175.516 343.144 175.606 341.998 174.561Z" fill="#6F6FB2"/>
<path d="M243.064 272.304C241.918 271.259 241.828 269.483 242.873 268.336L248.134 262.537C249.179 261.39 250.955 261.3 252.101 262.345C253.248 263.391 253.338 265.167 252.292 266.313L249.662 269.213L247.032 272.113C245.987 273.26 244.211 273.338 243.064 272.304Z" fill="#6F6FB2"/>
<path d="M253.585 174.561C254.731 173.516 254.821 171.74 253.776 170.593L248.516 164.793C247.47 163.647 245.694 163.557 244.548 164.602C243.401 165.648 243.311 167.424 244.357 168.57L246.987 171.47L249.617 174.37C250.662 175.516 252.438 175.606 253.585 174.561Z" fill="#6F6FB2"/>
<path d="M352.52 272.304C353.667 271.259 353.757 269.483 352.711 268.336L347.451 262.537C346.406 261.39 344.63 261.3 343.483 262.345C342.337 263.391 342.247 265.167 343.292 266.313L345.922 269.213L348.553 272.113C349.598 273.26 351.374 273.338 352.52 272.304Z" fill="#6F6FB2"/>
<path d="M300.905 296.055H300.354C298.196 296.055 296.442 294.301 296.442 292.143V279.936C296.442 277.778 298.196 276.025 300.354 276.025H300.905C303.063 276.025 304.816 277.778 304.816 279.936V292.143C304.816 294.301 303.063 296.055 300.905 296.055Z" fill="#6F6FB2"/>
<path d="M359.364 216.531V215.98C359.364 213.822 361.118 212.068 363.276 212.068H375.482C377.64 212.068 379.394 213.822 379.394 215.98V216.531C379.394 218.689 377.64 220.442 375.482 220.442H363.276C361.118 220.431 359.364 218.689 359.364 216.531Z" fill="#6F6FB2"/>
<path d="M219.786 216.531V215.98C219.786 213.822 221.54 212.068 223.698 212.068H235.904C238.062 212.068 239.816 213.822 239.816 215.98V216.531C239.816 218.689 238.062 220.442 235.904 220.442H223.698C221.528 220.431 219.786 218.689 219.786 216.531Z" fill="#6F6FB2"/>
<path d="M328.354 249.734L327.398 239.089L323.801 243.001L304.929 225.871C305.716 224.669 306.177 223.241 306.177 221.701C306.177 218.003 303.547 214.923 300.051 214.227V177.236H304.907L298.185 169.312L291.003 177.236H296.319V214.406C293.206 215.362 290.936 218.262 290.936 221.69C290.936 225.905 294.352 229.311 298.556 229.311C299.871 229.311 301.096 228.985 302.176 228.4L321.272 245.732L317.99 249.295L328.354 249.734Z" fill="#6F6FB2"/>
<path d="M330.479 161.759C334.706 161.759 338.133 158.332 338.133 154.104C338.133 149.877 334.706 146.45 330.479 146.45C326.251 146.45 322.824 149.877 322.824 154.104C322.824 158.332 326.251 161.759 330.479 161.759Z" fill="#E5E1FF"/>
<path d="M278.627 91.4862H278.267C277.75 91.4862 277.334 91.0703 277.334 90.5533V79.2908C277.334 78.7738 277.75 78.3579 278.267 78.3579H278.627C279.144 78.3579 279.559 78.7738 279.559 79.2908V90.5533C279.559 91.0703 279.144 91.4862 278.627 91.4862Z" fill="#CE9E4A"/>
<path d="M287.024 91.4862H286.664C286.147 91.4862 285.731 91.0703 285.731 90.5533V79.2908C285.731 78.7738 286.147 78.3579 286.664 78.3579H287.024C287.541 78.3579 287.957 78.7738 287.957 79.2908V90.5533C287.957 91.0703 287.541 91.4862 287.024 91.4862Z" fill="#CE9E4A"/>
<path d="M295.42 91.4862H295.06C294.543 91.4862 294.127 91.0703 294.127 90.5533V79.2908C294.127 78.7738 294.543 78.3579 295.06 78.3579H295.42C295.937 78.3579 296.352 78.7738 296.352 79.2908V90.5533C296.352 91.0703 295.925 91.4862 295.42 91.4862Z" fill="#CE9E4A"/>
<path d="M303.804 91.4862H303.445C302.928 91.4862 302.512 91.0703 302.512 90.5533V79.2908C302.512 78.7738 302.928 78.3579 303.445 78.3579H303.804C304.321 78.3579 304.737 78.7738 304.737 79.2908V90.5533C304.737 91.0703 304.321 91.4862 303.804 91.4862Z" fill="#CE9E4A"/>
<path d="M312.201 91.4862H311.841C311.324 91.4862 310.908 91.0703 310.908 90.5533V79.2908C310.908 78.7738 311.324 78.3579 311.841 78.3579H312.201C312.718 78.3579 313.134 78.7738 313.134 79.2908V90.5533C313.134 91.0703 312.718 91.4862 312.201 91.4862Z" fill="#CE9E4A"/>
<path d="M320.597 91.4862H320.238C319.721 91.4862 319.305 91.0703 319.305 90.5533V79.2908C319.305 78.7738 319.721 78.3579 320.238 78.3579H320.597C321.114 78.3579 321.53 78.7738 321.53 79.2908V90.5533C321.53 91.0703 321.114 91.4862 320.597 91.4862Z" fill="#CE9E4A"/>
<path d="M211.444 124.623V213.7C211.444 215.296 210.691 216.734 209.534 217.645C208.679 218.33 207.589 218.735 206.42 218.735H105.8C103.023 218.735 100.775 216.487 100.775 213.7V124.623H211.444Z" fill="#6F6FB2"/>
<path d="M211.444 123.195V136.616H100.775V123.195C100.775 123.094 100.775 122.993 100.787 122.892C100.933 117.204 105.597 112.629 111.341 112.629H200.89C206.622 112.629 211.287 117.204 211.444 122.892C211.444 122.993 211.444 123.094 211.444 123.195Z" fill="#5873E3"/>
<path d="M209.534 217.645C208.679 218.331 207.589 218.735 206.42 218.735H105.8C103.023 218.735 100.775 216.487 100.775 213.7V136.616L209.534 217.645Z" fill="#8B8BE2"/>
<path d="M123.884 122.892C121.917 122.892 120.321 121.296 120.321 119.329V110.325C120.321 108.358 121.917 106.762 123.884 106.762C125.851 106.762 127.447 108.358 127.447 110.325V119.329C127.447 121.296 125.851 122.892 123.884 122.892Z" fill="#6F6FB2"/>
<path d="M155.828 122.892C153.861 122.892 152.265 121.296 152.265 119.329V110.325C152.265 108.358 153.861 106.762 155.828 106.762C157.795 106.762 159.391 108.358 159.391 110.325V119.329C159.391 121.296 157.795 122.892 155.828 122.892Z" fill="#6F6FB2"/>
<path d="M185.773 122.892C183.806 122.892 182.21 121.296 182.21 119.329V110.325C182.21 108.358 183.806 106.762 185.773 106.762C187.74 106.762 189.336 108.358 189.336 110.325V119.329C189.336 121.296 187.74 122.892 185.773 122.892Z" fill="#6F6FB2"/>
<path d="M130.831 164.401H116.927C115.455 164.401 114.252 163.198 114.252 161.726V147.822C114.252 146.35 115.455 145.147 116.927 145.147H123.885H130.842C132.315 145.147 133.517 146.35 133.517 147.822V161.726C133.506 163.198 132.303 164.401 130.831 164.401Z" stroke="white" stroke-width="1.124" stroke-miterlimit="10"/>
<path d="M163.057 164.401H149.153C147.68 164.401 146.478 163.198 146.478 161.726V147.822C146.478 146.35 147.68 145.147 149.153 145.147H156.11H163.068C164.54 145.147 165.743 146.35 165.743 147.822V161.726C165.732 163.198 164.54 164.401 163.057 164.401Z" stroke="white" stroke-width="1.124" stroke-miterlimit="10"/>
<path d="M195.292 164.401H181.388C179.916 164.401 178.713 163.198 178.713 161.726V147.822C178.713 146.35 179.916 145.147 181.388 145.147H188.346H195.303C196.776 145.147 197.978 146.35 197.978 147.822V161.726C197.967 163.198 196.764 164.401 195.292 164.401Z" stroke="white" stroke-width="1.124" stroke-miterlimit="10"/>
<path d="M163.057 195.704H149.153C147.68 195.704 146.478 194.501 146.478 193.029V179.125C146.478 177.652 147.68 176.45 149.153 176.45H156.11H163.068C164.54 176.45 165.743 177.652 165.743 179.125V193.029C165.732 194.501 164.54 195.704 163.057 195.704Z" fill="#E79142"/>
<path d="M130.831 195.704H116.927C115.455 195.704 114.252 194.501 114.252 193.029V179.125C114.252 177.652 115.455 176.45 116.927 176.45H123.885H130.842C132.315 176.45 133.517 177.652 133.517 179.125V193.029C133.506 194.501 132.303 195.704 130.831 195.704Z" stroke="white" stroke-width="1.124" stroke-miterlimit="10"/>
<path d="M195.292 195.704H181.388C179.916 195.704 178.713 194.501 178.713 193.029V179.125C178.713 177.652 179.916 176.45 181.388 176.45H188.346H195.303C196.776 176.45 197.978 177.652 197.978 179.125V193.029C197.967 194.501 196.764 195.704 195.292 195.704Z" stroke="white" stroke-width="1.124" stroke-miterlimit="10"/>
<path d="M181.131 148.069L195.035 161.76" stroke="white" stroke-width="1.124" stroke-miterlimit="10" stroke-linecap="round" stroke-linejoin="round"/>
<path d="M195.294 148.069L181.39 161.76" stroke="white" stroke-width="1.124" stroke-miterlimit="10" stroke-linecap="round" stroke-linejoin="round"/>
<path d="M147.904 189.286L152.535 192.782L163.517 179.373" stroke="white" stroke-width="1.124" stroke-miterlimit="10" stroke-linecap="round" stroke-linejoin="round"/>
<path d="M211.444 123.195V136.616H100.775V123.195C100.775 123.094 100.775 122.993 100.787 122.892H211.433C211.444 122.993 211.444 123.094 211.444 123.195Z" fill="#9494ED"/>
<path d="M77.7789 348.591L75.958 361.663H85.4108L87.5015 348.591H77.7789Z" fill="#E2B3DE"/>
<path d="M76.1822 360C76.1822 360 74.5074 364.597 74.4287 368.407H95.2452C95.2452 368.407 94.3572 361.922 85.6125 360.325C85.6237 360.325 82.7463 361.067 76.1822 360Z" fill="#1D46F3"/>
<path d="M115.274 349.378L117.68 361.753H127.436L124.885 349.378H115.274Z" fill="#E2B3DE"/>
<path d="M117.095 358.752C117.095 358.752 115.319 363.99 115.623 368.407H140.868C140.868 368.407 139.957 364.439 135.99 362.382C132.022 360.326 127.088 359.988 127.088 359.988C127.088 359.988 126.042 362.214 117.095 358.752Z" fill="#1D46F3"/>
<path d="M130.55 350.648H109.745L100.798 290.502L92.2215 350.648H72.2256C72.2256 350.648 77.6995 289.738 81.1277 276.509C83.578 267.078 88.3887 261.829 90.9514 259.581C91.9855 258.671 92.6487 258.255 92.6487 258.255L116.612 262.335L130.55 350.648Z" fill="#1D46F3"/>
<path d="M98.19 260.29C98.19 260.29 89.5127 264.729 86.3093 275.486C83.4768 284.973 77.5983 338.194 76.2383 350.648H72.2256C72.2256 350.648 77.6995 289.738 81.1277 276.509C83.578 267.079 88.3887 261.83 90.9514 259.582L98.19 260.29Z" fill="#6969DE"/>
<path d="M116.287 226.873L137.598 235.426L134.394 244.272L115.455 237.944L116.287 226.873Z" fill="#E2B3DE"/>
<path d="M110.824 199.402C110.824 199.402 106.676 196.536 100.056 200.2C93.4241 203.864 93.8624 213.857 89.7935 218.42C85.7247 222.984 81.7232 229.806 88.2199 235.426C94.7279 241.046 109.194 241.204 116.297 233.695C123.401 226.187 121.569 210.114 118.692 204.112C115.825 198.11 110.824 199.402 110.824 199.402Z" fill="#1D46F3"/>
<path d="M121.603 236.72L115.612 262.347L90.2545 260.672H90.187L88.4336 234.528C88.8944 227.694 94.7954 222.523 101.618 222.973L110.059 223.524C113.454 223.749 116.432 225.322 118.512 227.683C120.636 230.077 121.839 233.28 121.603 236.72Z" fill="#5873E3"/>
<path d="M121.625 236.562L115.634 262.189L90.2764 260.514L118.545 227.525C120.647 229.919 121.861 233.122 121.625 236.562Z" fill="#7891FB"/>
<path d="M117.141 212.846C116.826 217.544 114.185 221.287 109.689 221.894L109.576 223.501L109.509 224.389L106.384 224.175L102.653 223.928L102.9 220.253C100.877 218.859 99.4154 216.701 98.9096 214.228C98.7298 213.385 98.6623 212.52 98.7298 211.62C99.0782 206.27 103.709 202.224 109.059 202.572C114.398 202.932 117.501 207.507 117.141 212.846Z" fill="#E1E0FF"/>
<path d="M109.688 221.883L109.576 223.49C108.8 223.76 107.665 223.985 106.384 224.165L102.652 223.917L102.899 220.242C100.876 218.848 99.415 216.69 98.9092 214.217L100.876 213.779C100.865 213.79 103.933 219.466 109.688 221.883Z" fill="#E2B3DE"/>
<path d="M111.858 224.535L99.708 223.726L99.9665 223.175C100.405 222.253 101.54 221.68 102.765 221.77L109.071 222.186C110.307 222.265 111.353 222.984 111.667 223.951L111.858 224.535Z" fill="#1D46F3"/>
<path d="M111.678 203.157C111.678 203.157 112.375 204.887 108.374 209.878C104.372 214.869 98.9322 215.352 98.9322 215.352C98.9322 215.352 96.7291 209.451 100.82 205.034C100.809 205.034 105.912 199.605 111.678 203.157Z" fill="#1D46F3"/>
<path d="M168.171 206.944L146.567 294.616L121.963 288.108L141.284 199.852L160.066 185.083L168.171 206.944Z" fill="#B8B2FF"/>
<path d="M153.513 190.23L129.369 294.616L138.934 295.931L163.112 193.288L153.513 190.23Z" fill="#A19FED"/>
<path d="M135.586 259.087C135.417 259.604 134.855 259.863 134.349 259.683L130.887 258.458L130.899 258.75L134.023 259.997C134.507 260.189 134.754 260.739 134.574 261.223C134.406 261.74 133.832 261.998 133.327 261.818L130.921 260.964V261.256L133.135 262.144C133.619 262.335 133.866 262.886 133.697 263.369C133.518 263.887 132.944 264.145 132.439 263.965L130.955 263.437L130.966 263.763L132.281 264.302C132.663 264.449 132.899 264.819 132.899 265.213C132.899 265.314 132.877 265.415 132.843 265.528C132.663 266.056 132.101 266.314 131.596 266.135L131 265.921V265.955C131 265.955 124.986 267.989 123.66 267.135L102.596 264.831C102.113 264.774 101.641 264.685 101.203 264.55C99.1569 263.988 97.3698 262.729 96.1671 261.02C95.5826 260.222 95.133 259.312 94.8295 258.334L88.4452 237.304C87.6022 234.539 89.1871 231.616 91.9633 230.796C94.6272 230.032 97.4147 231.47 98.3252 234.078L105.474 254.546L124.897 258.255V258.267L130.865 256.311L135.024 257.873C135.496 258.053 135.754 258.581 135.586 259.087Z" fill="#E1E0FF"/>
<path d="M168.17 206.944C152.479 211.62 141.284 199.852 141.284 199.852L153.513 190.23L160.066 185.071L163.112 193.288L168.17 206.944Z" fill="#E1D7F7"/>
<path d="M123.559 280.814L148.399 287.21L146.5 295.471C145.713 298.91 142.262 301.046 138.834 300.225L126.223 297.191C122.839 296.381 120.738 292.987 121.524 289.604L123.559 280.814Z" fill="#6F6FB2"/>
<path d="M163.113 193.288C161.494 193.715 159.358 193.973 157.459 193.265C155.402 192.49 154.177 191.208 153.514 190.23L160.067 185.071L163.113 193.288Z" fill="#6F6FB2"/>
<path d="M100.809 290.503L105.057 282.174L115.297 350.66H109.767L100.809 290.503Z" fill="#1D46F3"/>
<path d="M130.853 256.311L124.638 264.28L124.885 258.266L130.853 256.311Z" fill="#E2B3DE"/>
<path d="M101.382 263.493C101.382 263.864 101.315 264.224 101.203 264.549C99.1568 263.987 97.3697 262.729 96.167 261.02C96.7178 260.559 97.4259 260.29 98.2014 260.29C99.9549 260.29 101.382 261.728 101.382 263.493Z" fill="#E2B3DE"/>
<path d="M83.3302 313.702L92.7156 314.5C92.7156 314.5 92.4908 318.052 88.7142 318.502C84.9375 318.962 82.8694 315.422 83.3302 313.702Z" fill="#1D46F3"/>
<path d="M115.005 314.556L124.379 313.68C124.379 313.68 124.784 317.209 121.153 318.333C117.511 319.457 114.859 316.332 115.005 314.556Z" fill="#1D46F3"/>
<path d="M201.508 324.66C207.116 320.85 210.792 314.421 210.792 307.137V285.32H165.438V307.137C165.438 314.735 169.462 321.389 175.476 325.121C169.867 328.932 166.192 335.361 166.192 342.644V364.461H211.545V342.644C211.545 335.035 207.532 328.392 201.508 324.66Z" fill="#B8B2FF"/>
<path d="M214.726 363.034H161.954V369.306H214.726V363.034Z" fill="#6F6FB2"/>
<path d="M214.726 282.173H161.954V288.445H214.726V282.173Z" fill="#6F6FB2"/>
<path d="M170.722 296.605V308.104C170.722 316.489 177.522 323.278 185.896 323.278H186.581V348.411L178.68 363.045H200.159L190.482 348.568V323.244C198.507 322.84 204.891 316.23 204.891 308.104V296.605H170.722Z" fill="#F4EEFF"/>
<path d="M425.317 269.461C424.879 269.371 424.452 269.326 424.013 269.326C421.237 269.326 418.719 271.225 418.056 274.035L414.751 287.838L411.593 301.056L390.057 308.396C390.046 308.373 390.035 308.362 390.035 308.362L381.301 311.049C380.143 311.408 379.199 312.251 378.727 313.364L376.209 319.265C375.884 320.029 376.266 320.906 377.041 321.187C377.693 321.423 378.413 321.165 378.772 320.569L379.795 318.849L379.3 321.255C379.166 321.94 379.559 322.615 380.222 322.817C380.885 323.03 381.605 322.704 381.874 322.064L382.819 319.872L382.684 322.187C382.639 322.918 383.156 323.57 383.875 323.716C384.673 323.873 385.437 323.345 385.595 322.547L385.977 320.524L386.258 322.064C386.393 322.828 387.112 323.356 387.888 323.266C388.652 323.177 389.225 322.502 389.192 321.727L389.135 320.4C389.135 320.4 391.754 320.367 394.272 319.22L418.618 310.947C421.518 309.958 423.665 307.519 424.294 304.518L427.217 290.401L430.049 276.722C430.723 273.406 428.622 270.18 425.317 269.461Z" fill="#9A9FCC"/>
<path d="M428.994 276.283L426.015 290.39L412.954 287.748L416.416 273.53C417.113 270.63 419.754 268.674 422.665 268.674C423.115 268.674 423.576 268.719 424.026 268.82C427.499 269.551 429.713 272.889 428.994 276.283Z" fill="#6F6FB2"/>
<path d="M459.87 283.263V314.05H417.956V283.263C417.956 280.038 418.822 277.014 420.35 274.418C423.396 269.18 429.061 265.662 435.558 265.662H442.268C451.991 265.662 459.87 273.552 459.87 283.263Z" fill="#5873E3"/>
<path d="M459.87 314.05H417.956V283.263C417.956 280.038 418.822 277.014 420.35 274.417L459.87 314.05Z" fill="#7891FB"/>
<path d="M448.843 251.623C448.843 256.096 446.437 259.996 442.863 262.132V266.785H434.186V263.627C428.588 262.503 425.564 257.557 425.564 251.623C425.564 244.867 429.847 239.394 436.602 239.394C443.369 239.394 448.843 244.867 448.843 251.623Z" fill="#E2B3DE"/>
<path d="M447.303 241.765C447.168 239.551 445.347 237.797 443.099 237.797H429.566C426.43 237.797 423.89 240.338 423.89 243.474C423.89 244.71 424.89 245.71 426.126 245.71H442.245C442.705 248.947 445.482 251.443 448.854 251.443V244.811C448.842 243.563 448.236 242.462 447.303 241.765Z" fill="#1D46F3"/>
<path d="M443.605 314.038V325.93C443.605 331.415 440.289 336.349 435.22 338.429L396.701 354.199L391.407 391.302H368.05L376.345 343.453C377.705 335.473 383.1 328.774 390.597 325.739L419.529 314.027H443.605V314.038Z" fill="#5B5BC9"/>
<path d="M459.869 314.038V325.93C459.869 331.415 456.553 336.349 451.484 338.429L412.964 354.199L407.67 391.302H384.313L392.609 343.453C393.969 335.473 399.364 328.774 406.861 325.739L435.793 314.027H459.869V314.038Z" fill="#6F6FB2"/>
<path d="M458.206 276.71L455.363 290.401L452.564 303.934L452.44 304.518C451.946 306.845 450.541 308.857 448.562 310.082C448 310.442 447.405 310.734 446.764 310.947L426.352 317.882L422.418 319.22C419.9 320.367 417.281 320.4 417.281 320.4L417.349 321.738C417.383 322.502 416.809 323.177 416.045 323.266C415.269 323.356 414.561 322.839 414.415 322.064L414.134 320.524L413.752 322.547C413.606 323.345 412.83 323.862 412.032 323.716C411.313 323.581 410.807 322.929 410.841 322.187L410.976 319.872L410.032 322.064C409.762 322.704 409.043 323.03 408.379 322.817C407.716 322.603 407.323 321.929 407.458 321.254L407.952 318.849L406.929 320.569C406.57 321.165 405.85 321.423 405.198 321.187C404.423 320.906 404.041 320.029 404.367 319.265L406.873 313.364C406.918 313.252 406.974 313.139 407.042 313.027C407.559 312.083 408.413 311.363 409.447 311.037L418.192 308.362C418.192 308.362 418.203 308.373 418.214 308.396L439.761 301.056L442.92 287.838L446.224 274.035C446.888 271.225 449.405 269.337 452.182 269.337C452.609 269.337 453.047 269.382 453.474 269.472C456.779 270.18 458.881 273.417 458.206 276.71Z" fill="#E2B3DE"/>
<path d="M458.206 276.71L455.373 290.389L442.931 287.827L446.235 274.024C446.898 271.214 449.416 269.314 452.192 269.314C452.62 269.314 453.058 269.359 453.496 269.449C456.79 270.18 458.88 273.406 458.206 276.71Z" fill="#6F6FB2"/>
<path d="M372.085 391.313L371.377 396.09H384.708L385.562 391.313H372.085Z" fill="#9A9FCC"/>
<path d="M371.377 396.09C371.377 396.09 366.083 398.563 362.441 400.227C358.8 401.879 358.541 406.971 358.541 406.971H383.887L384.708 396.102H371.377V396.09Z" fill="#1D46F3"/>
<path d="M362.644 299.685H397.353L407.345 323.098H419.619V325.739H374.266L362.644 299.685Z" fill="#E79142"/>
<path d="M389.203 391.313L388.483 396.09H401.825L402.68 391.313H389.203Z" fill="#9A9FCC"/>
<path d="M388.484 396.09C388.484 396.09 383.19 398.563 379.548 400.227C375.906 401.879 375.647 406.971 375.647 406.971H400.994L401.814 396.102H388.484V396.09Z" fill="#6F6FB2"/>
<path d="M442.863 262.132V264.65L434.624 265.414C434.624 265.414 434.444 265.448 434.186 265.481V263.627C434.186 263.627 438.985 263.795 442.863 262.132Z" fill="#9A9FCC"/>
<path d="M432.5 266.774H444.886L444.65 266.055C444.268 264.863 443.156 264.043 441.897 264.043H435.467C434.208 264.043 433.096 264.852 432.714 266.055L432.5 266.774Z" fill="#6F6FB2"/>
<path d="M452.564 303.934L452.441 304.518C451.946 306.845 450.541 308.857 448.563 310.082C447.945 309.408 447.562 308.52 447.562 307.531C447.562 305.429 449.26 303.731 451.35 303.731C451.777 303.731 452.182 303.799 452.564 303.934Z" fill="#9A9FCC"/>
<path d="M362.644 299.685L406.862 325.751L374.266 325.739L362.644 299.685Z" fill="#CE9E4A"/>
</svg>
