<svg width="34" height="34" viewBox="0 0 34 34" fill="none" xmlns="http://www.w3.org/2000/svg">
<circle cx="17" cy="17" r="16.5" fill="#F4F7FE" stroke="#F2F2F2"/>
<path d="M22.4688 25.0383L21.0063 24.6633L20.3563 26.0195C20.1251 26.4945 19.4501 26.4945 19.2251 26.0133L17.9126 23.2008C19.4313 23.0383 20.8313 22.4695 22.0001 21.6133L23.1876 24.1633C23.4126 24.6445 22.9813 25.1633 22.4688 25.0383Z" fill="#219653"/>
<path d="M16.0876 23.2008L14.7751 26.0133C14.5501 26.4945 13.8751 26.4945 13.6439 26.0195L12.9939 24.6633L11.5314 25.0383C11.0189 25.1633 10.5876 24.6445 10.8126 24.1633L12.0001 21.6133C13.1689 22.4695 14.5689 23.0383 16.0876 23.2008Z" fill="#219653"/>
<path d="M17 7.625C13.0306 7.625 9.8125 10.8431 9.8125 14.8125C9.8125 18.7819 13.0306 22 17 22C20.9694 22 24.1875 18.7819 24.1875 14.8125C24.1875 10.8431 20.9694 7.625 17 7.625ZM20.2431 14.6444L19.0875 15.7706L19.36 17.3612C19.45 17.8856 18.8994 18.2862 18.4281 18.0381L17 17.2875L15.5719 18.0381C15.1006 18.2856 14.55 17.8856 14.64 17.3612L14.9125 15.7706L13.7569 14.6444C13.3756 14.2725 13.5862 13.6256 14.1131 13.5487L15.71 13.3169L16.4244 11.87C16.66 11.3925 17.3406 11.3925 17.5763 11.87L18.2906 13.3169L19.8875 13.5487C20.4144 13.625 20.6244 14.2725 20.2438 14.6444H20.2431Z" fill="#219653"/>
</svg>
