<svg width="34" height="34" viewBox="0 0 34 34" fill="none" xmlns="http://www.w3.org/2000/svg">
<circle cx="17" cy="17" r="16.5" fill="#F4F7FE" stroke="#F2F2F2"/>
<path d="M26.5844 20.4918L19.5194 7.5045C18.3843 5.59352 15.6172 5.59098 14.4806 7.5045L7.41589 20.4918C6.2555 22.4445 7.66039 24.9173 9.93472 24.9173H24.065C26.3375 24.9173 27.7448 22.4465 26.5844 20.4918ZM17 22.5735C16.354 22.5735 15.8281 22.0477 15.8281 21.4016C15.8281 20.7556 16.354 20.2298 17 20.2298C17.646 20.2298 18.1719 20.7556 18.1719 21.4016C18.1719 22.0477 17.646 22.5735 17 22.5735ZM18.1719 17.886C18.1719 18.532 17.646 19.0579 17 19.0579C16.354 19.0579 15.8281 18.532 15.8281 17.886V12.0266C15.8281 11.3806 16.354 10.8548 17 10.8548C17.646 10.8548 18.1719 11.3806 18.1719 12.0266V17.886Z" fill="#E41323"/>
</svg>
