<svg width="34" height="34" viewBox="0 0 34 34" fill="none" xmlns="http://www.w3.org/2000/svg">
<circle cx="17" cy="17" r="16.5" fill="#F4F7FE" stroke="#F2F2F2"/>
<g clip-path="url(#clip0_7414_3578)">
<path d="M26.8523 25.2619L22.5872 17.5316C22.1416 16.7239 20.9807 16.7239 20.5351 17.5316L16.27 25.2619C15.8391 26.043 16.4041 26.9999 17.2961 26.9999H25.8262C26.7182 26.9999 27.2832 26.043 26.8523 25.2619Z" fill="#1175BE"/>
<path d="M18.2224 19.2775L19.1064 17.6754C16.9965 17.308 15.3872 15.4635 15.3872 13.25C15.3872 10.773 17.4024 8.75781 19.8794 8.75781C22.3564 8.75781 24.3716 10.773 24.3716 13.25C24.3716 14.4547 23.8948 15.5501 23.1201 16.3576C23.3107 16.5295 23.4745 16.7339 23.6023 16.9655L24.097 17.8621C25.346 16.7194 26.1294 15.0763 26.1294 13.25C26.1294 9.7982 23.3312 7 19.8794 7C16.4276 7 13.6294 9.7982 13.6294 13.25C13.6294 16.1281 15.5749 18.5514 18.2224 19.2775Z" fill="#1175BE"/>
<path d="M19.8906 9.92969C18.0598 9.92969 16.5703 11.4192 16.5703 13.25C16.5703 15.0458 18.0036 16.5122 19.7862 16.5677C20.2262 16.0571 20.8718 15.754 21.5614 15.754C21.7157 15.754 21.8678 15.7694 22.0159 15.7986C22.7457 15.1891 23.2109 14.273 23.2109 13.25C23.2109 11.4192 21.7215 9.92969 19.8906 9.92969Z" fill="#1175BE"/>
<path d="M13.7214 17.3711L7.93575 21.8343C6.7877 22.72 6.67895 24.4127 7.70422 25.438C8.7295 26.4633 10.4222 26.3545 11.3079 25.2065L15.7692 19.4233C14.9552 18.8777 14.2604 18.1779 13.7214 17.3711ZM9.36153 24.3666C9.03793 24.3666 8.77559 24.1043 8.77559 23.7807C8.77559 23.4571 9.03793 23.1948 9.36153 23.1948C9.68512 23.1948 9.94746 23.4571 9.94746 23.7807C9.94746 24.1043 9.68512 24.3666 9.36153 24.3666Z" fill="#1175BE"/>
<path d="M21.4084 26.1667V19.5H21.8302V26.1667H21.4084ZM22.5273 21.7005C22.5067 21.4905 22.4184 21.3273 22.2623 21.2109C22.1063 21.0946 21.8945 21.0365 21.6271 21.0365C21.4453 21.0365 21.2918 21.0625 21.1667 21.1146C21.0415 21.1649 20.9455 21.2352 20.8786 21.3255C20.8134 21.4158 20.7809 21.5182 20.7809 21.6328C20.7774 21.7283 20.7972 21.8116 20.84 21.8828C20.8846 21.954 20.9455 22.0156 21.0226 22.0677C21.0998 22.1181 21.189 22.1623 21.2901 22.2005C21.3913 22.237 21.4993 22.2682 21.6142 22.2943L22.0874 22.4089C22.3172 22.4609 22.5281 22.5304 22.7202 22.6172C22.9122 22.704 23.0785 22.8108 23.2191 22.9375C23.3597 23.0642 23.4686 23.2135 23.5458 23.3854C23.6247 23.5573 23.665 23.7543 23.6667 23.9766C23.665 24.303 23.5826 24.5859 23.4198 24.8255C23.2586 25.0634 23.0254 25.2483 22.7202 25.3802C22.4167 25.5104 22.0506 25.5755 21.6219 25.5755C21.1967 25.5755 20.8263 25.5095 20.5108 25.3776C20.197 25.2457 19.9518 25.0503 19.7752 24.7917C19.6003 24.5312 19.5086 24.2092 19.5 23.8255H20.5777C20.5897 24.0043 20.6403 24.1536 20.7294 24.2734C20.8203 24.3915 20.9412 24.4809 21.0921 24.5417C21.2447 24.6007 21.417 24.6302 21.6091 24.6302C21.7977 24.6302 21.9614 24.6024 22.1003 24.5469C22.2409 24.4913 22.3498 24.4141 22.427 24.3151C22.5041 24.2161 22.5427 24.1024 22.5427 23.974C22.5427 23.8542 22.5075 23.7535 22.4372 23.6719C22.3687 23.5903 22.2675 23.5208 22.1337 23.4635C22.0017 23.4062 21.8397 23.3542 21.6476 23.3073L21.0741 23.1615C20.63 23.0521 20.2793 22.8811 20.0221 22.6484C19.7649 22.4158 19.6372 22.1024 19.6389 21.7083C19.6372 21.3854 19.7221 21.1033 19.8935 20.862C20.0667 20.6207 20.3042 20.4323 20.606 20.2969C20.9078 20.1615 21.2507 20.0938 21.6348 20.0938C22.0257 20.0938 22.3669 20.1615 22.6584 20.2969C22.9516 20.4323 23.1797 20.6207 23.3426 20.862C23.5055 21.1033 23.5895 21.3828 23.5946 21.7005H22.5273Z" fill="white"/>
</g>
<defs>
<clipPath id="clip0_7414_3578">
<rect width="20" height="20" fill="white" transform="translate(7 7)"/>
</clipPath>
</defs>
</svg>
