<svg width="34" height="34" viewBox="0 0 34 34" fill="none" xmlns="http://www.w3.org/2000/svg">
<circle cx="17" cy="17" r="16.5" fill="#F4F7FE" stroke="#F2F2F2"/>
<path d="M17 7.25C15.0716 7.25 13.1866 7.82183 11.5832 8.89317C9.97982 9.96452 8.73013 11.4873 7.99218 13.2688C7.25422 15.0504 7.06114 17.0108 7.43735 18.9021C7.81355 20.7934 8.74215 22.5307 10.1057 23.8943C11.4693 25.2579 13.2066 26.1865 15.0979 26.5627C16.9892 26.9389 18.9496 26.7458 20.7312 26.0078C22.5127 25.2699 24.0355 24.0202 25.1068 22.4168C26.1782 20.8134 26.75 18.9284 26.75 17C26.7474 14.415 25.7193 11.9365 23.8914 10.1086C22.0635 8.28073 19.5851 7.25265 17 7.25ZM20.53 20.53C20.3894 20.6705 20.1988 20.7493 20 20.7493C19.8013 20.7493 19.6106 20.6705 19.47 20.53L16.47 17.53C16.3293 17.3895 16.2502 17.1988 16.25 17V11C16.25 10.8011 16.329 10.6103 16.4697 10.4697C16.6103 10.329 16.8011 10.25 17 10.25C17.1989 10.25 17.3897 10.329 17.5303 10.4697C17.671 10.6103 17.75 10.8011 17.75 11V16.69L20.53 19.47C20.6705 19.6106 20.7493 19.8012 20.7493 20C20.7493 20.1988 20.6705 20.3894 20.53 20.53Z" fill="#F45E09"/>
</svg>
